<svg xmlns="http://www.w3.org/2000/svg" xmlns:xlink="http://www.w3.org/1999/xlink" viewBox="0 0 1000 1000"><defs><style>.cls-1{fill:#fff;}.cls-2{fill:url(#linear-gradient);}.cls-3{fill:url(#linear-gradient-2);}</style><linearGradient id="linear-gradient" x1="889.5" y1="243.74" x2="325.27" y2="858.67" gradientUnits="userSpaceOnUse"><stop offset="0.23" stop-color="#8c50ff"/><stop offset="0.29" stop-color="#864dfe"/><stop offset="0.37" stop-color="#7446fa"/><stop offset="0.46" stop-color="#5839f3"/><stop offset="0.53" stop-color="#3d2ded"/><stop offset="0.58" stop-color="#3d39ed"/><stop offset="0.66" stop-color="#3d59ed"/><stop offset="0.76" stop-color="#3d8ded"/><stop offset="0.76" stop-color="#3d8eed"/></linearGradient><linearGradient id="linear-gradient-2" x1="755.83" y1="121.09" x2="191.6" y2="736.02" gradientUnits="userSpaceOnUse"><stop offset="0.52" stop-color="#8c50ff"/><stop offset="0.65" stop-color="#5437f2"/><stop offset="0.72" stop-color="#3d2ded"/><stop offset="0.79" stop-color="#3d54ed"/><stop offset="0.86" stop-color="#3d74ed"/><stop offset="0.92" stop-color="#3d87ed"/><stop offset="0.96" stop-color="#3d8eed"/></linearGradient></defs><g id="Layer_2" data-name="Layer 2"><g id="Calque_2" data-name="Calque 2"><rect class="cls-1" width="1000" height="1000" rx="70.33"/><path class="cls-2" d="M830.9,274.49s-31.95,3.09-52.73,30.33c-61.78,81-46.48,172-89.43,274.21C660.32,646.71,598,725.16,488.1,725.51c-70.21.22-94.86-48-94.86-48s20.15,9.58,52.7,2.62c112.18-24,139.51-198.78,166-254.7s67.77-96.93,94.86-115.83C754.31,276.45,830.9,274.49,830.9,274.49Z"/><path class="cls-3" d="M479.53,508.59s-34.92,9.64-46.45,38.62c-12.75,32-8.93,55.56-19.77,85.43-32.73,90.14-103,94.1-121.09,92.67-41.36-3.27-97.76-33.71-99.76-112-.82-32,11.27-47.65,16.3-53.82a56.36,56.36,0,0,1,9.85-9.9c2.65-2.26-4.08,8.31-3.08,22.79,2.75,39.92,27.3,71.31,68.89,73.18,45.85,2.07,75.06-60.32,84.82-74.19,25.1-35.67,44.48-49.58,72.69-59.2C449.53,509.57,472.27,506.77,479.53,508.59Z"/></g></g></svg>