<svg xmlns="http://www.w3.org/2000/svg" xmlns:xlink="http://www.w3.org/1999/xlink" viewBox="0 0 638.48 451.01"><defs><style>.cls-1{fill:url(#linear-gradient);}.cls-2{fill:url(#linear-gradient-2);}</style><linearGradient id="linear-gradient" x1="697.08" y1="-30.75" x2="132.85" y2="584.18" gradientUnits="userSpaceOnUse"><stop offset="0.23" stop-color="#8c50ff"/><stop offset="0.29" stop-color="#864dfe"/><stop offset="0.37" stop-color="#7446fa"/><stop offset="0.46" stop-color="#5839f3"/><stop offset="0.53" stop-color="#3d2ded"/><stop offset="0.58" stop-color="#3d39ed"/><stop offset="0.66" stop-color="#3d59ed"/><stop offset="0.76" stop-color="#3d8ded"/><stop offset="0.76" stop-color="#3d8eed"/></linearGradient><linearGradient id="linear-gradient-2" x1="563.41" y1="-153.4" x2="-0.82" y2="461.53" gradientUnits="userSpaceOnUse"><stop offset="0.52" stop-color="#8c50ff"/><stop offset="0.65" stop-color="#5437f2"/><stop offset="0.72" stop-color="#3d2ded"/><stop offset="0.79" stop-color="#3d54ed"/><stop offset="0.86" stop-color="#3d74ed"/><stop offset="0.92" stop-color="#3d87ed"/><stop offset="0.96" stop-color="#3d8eed"/></linearGradient></defs><g id="Layer_2" data-name="Layer 2"><g id="Calque_2" data-name="Calque 2"><path class="cls-1" d="M638.48,0s-32,3.09-52.73,30.33c-61.78,81-46.48,172-89.43,274.21C467.9,372.22,405.61,450.67,295.68,451c-70.21.23-94.86-48-94.86-48s20.15,9.59,52.7,2.62c112.18-24,139.51-198.77,166-254.69S487.32,54,514.41,35.07C561.89,2,638.48,0,638.48,0Z"/><path class="cls-2" d="M287.11,234.1s-34.92,9.64-46.45,38.61c-12.75,32-8.93,55.57-19.77,85.44-32.73,90.13-103,94.1-121.09,92.67C58.44,447.54,2,417.11,0,338.81c-.82-32,11.27-47.65,16.3-53.82a56.36,56.36,0,0,1,9.85-9.9c2.65-2.26-4.08,8.3-3.08,22.79,2.75,39.92,27.3,71.3,68.89,73.18,45.85,2.07,75.06-60.32,84.82-74.19,25.09-35.67,44.48-49.58,72.69-59.2C257.11,235.08,279.85,232.27,287.11,234.1Z"/></g></g></svg>